<?xml version="1.0" encoding="UTF-8" standalone="no"?>
<!-- Created with Inkscape (http://www.inkscape.org/) -->

<svg
   xmlns:dc="http://purl.org/dc/elements/1.1/"
   xmlns:cc="http://creativecommons.org/ns#"
   xmlns:rdf="http://www.w3.org/1999/02/22-rdf-syntax-ns#"
   xmlns:svg="http://www.w3.org/2000/svg"
   xmlns="http://www.w3.org/2000/svg"
   xmlns:sodipodi="http://sodipodi.sourceforge.net/DTD/sodipodi-0.dtd"
   xmlns:inkscape="http://www.inkscape.org/namespaces/inkscape"
   version="1.1"
   id="svg28396"
   xml:space="preserve"
   width="800"
   height="800"
   viewBox="110 50 600 650"
   sodipodi:docname="logo-elements-44-publicdomainvectors.org.svg"
   inkscape:version="0.92.4 (5da689c313, 2019-01-14)"><metadata
     id="metadata28402"><rdf:RDF><cc:Work
         rdf:about=""><dc:format>image/svg+xml</dc:format><dc:type
           rdf:resource="http://purl.org/dc/dcmitype/StillImage" /><dc:title></dc:title></cc:Work></rdf:RDF></metadata><defs
     id="defs28400"><clipPath
       clipPathUnits="userSpaceOnUse"
       id="clipPath28412"><path
         d="M 0,600 H 600 V 0 H 0 Z"
         id="path28410"
         inkscape:connector-curvature="0" /></clipPath><linearGradient
       x1="0"
       y1="0"
       x2="1"
       y2="0"
       gradientUnits="userSpaceOnUse"
       gradientTransform="matrix(466.12939,0,0,-466.12939,75.396973,326.17578)"
       spreadMethod="pad"
       id="linearGradient28436"><stop
         style="stop-opacity:1;stop-color:#1aaeec"
         offset="0"
         id="stop28426" /><stop
         style="stop-opacity:1;stop-color:#4253a7"
         offset="0.297753"
         id="stop28428" /><stop
         style="stop-opacity:1;stop-color:#e70c8d"
         offset="0.646067"
         id="stop28430" /><stop
         style="stop-opacity:1;stop-color:#e33c47"
         offset="0.955056"
         id="stop28432" /><stop
         style="stop-opacity:1;stop-color:#e33c47"
         offset="1"
         id="stop28434" /></linearGradient></defs><sodipodi:namedview
     pagecolor="#ffffff"
     bordercolor="#666666"
     borderopacity="1"
     objecttolerance="10"
     gridtolerance="10"
     guidetolerance="10"
     inkscape:pageopacity="0"
     inkscape:pageshadow="2"
     inkscape:window-width="797"
     inkscape:window-height="480"
     id="namedview28398"
     showgrid="false"
     inkscape:zoom="0.295"
     inkscape:cx="400"
     inkscape:cy="400"
     inkscape:window-x="0"
     inkscape:window-y="0"
     inkscape:window-maximized="0"
     inkscape:current-layer="g28404" /><g
     id="g28404"
     inkscape:groupmode="layer"
     inkscape:label="logo-elements-44-publicdomainvectors.org"
     transform="matrix(1.3333333,0,0,-1.3333333,0,800)"><g
       id="g28406"><g
         id="g28408"
         clip-path="url(#clipPath28412)"><g
           id="g28414"><g
             id="g28416"><g
               id="g28422"><g
                 id="g28424"><path
                   d="m 393.02,221.348 c -21.075,1.035 -41.721,2.04 -61.943,2.965 -3.262,0.12 -6.531,0.235 -9.797,0.374 -0.8,-0.962 -1.621,-1.896 -2.513,-2.806 -4.479,-5.636 -8.802,-11.172 -12.9,-16.663 -1.297,1.581 -2.599,3.16 -3.833,4.773 -4.034,5.614 -8.317,11.298 -12.744,17.074 -0.885,0.915 -1.686,1.87 -2.461,2.849 -3.273,-0.087 -6.539,-0.141 -9.804,-0.205 -20.237,-0.57 -40.886,-1.223 -61.99,-1.885 -13.292,-0.399 -26.683,-0.722 -40.177,-0.973 7.168,11.422 14.339,22.74 21.521,33.942 11.436,17.742 22.624,35.111 33.541,52.172 1.724,2.761 3.47,5.531 5.215,8.296 -0.427,1.165 -0.825,2.343 -1.175,3.574 -2.636,6.695 -5.269,13.205 -7.976,19.503 2.016,0.337 4.033,0.678 6.047,0.933 6.883,0.693 13.944,1.558 21.162,2.501 1.23,0.313 2.472,0.524 3.696,0.713 1.567,2.876 3.151,5.73 4.717,8.584 9.635,17.808 19.393,36.026 29.367,54.626 6.312,11.711 12.72,23.47 19.242,35.292 6.326,-11.923 12.528,-23.797 18.649,-35.611 9.639,-18.77 19.087,-37.157 28.404,-55.135 1.531,-2.884 3.06,-5.765 4.576,-8.667 1.224,-0.215 2.45,-0.454 3.687,-0.779 7.116,-1.052 14.073,-2.029 20.874,-2.841 -0.717,-1.914 -1.432,-3.831 -2.217,-5.703 -2.845,-6.297 -5.618,-12.848 -8.413,-19.568 -0.35,-1.221 -0.78,-2.403 -1.23,-3.555 1.713,-2.801 3.388,-5.592 5.073,-8.387 10.611,-17.252 21.501,-34.799 32.625,-52.737 6.992,-11.321 13.97,-22.751 20.932,-34.315 -13.476,0.485 -26.865,1.054 -40.155,1.659 m 91.67,103.36 c -3.784,4.983 -7.588,9.714 -11.38,14.203 -5.089,5.565 -10.264,11.394 -15.522,17.491 -7.483,8.064 -14.984,15.464 -22.476,22.236 -1.161,4.666 -2.41,9.383 -3.8,14.186 -2.509,7.658 -4.847,15.09 -6.99,22.318 -1.897,5.554 -3.993,11.255 -6.321,17.065 -10.882,29.274 -24.984,59.974 -41.815,91.421 l -1.851,0.645 c 0.208,-0.543 0.451,-1.099 0.717,-1.689 6.288,-16.522 11.249,-32.374 14.795,-47.384 2.552,-11.373 4.875,-22.74 6.881,-34.11 0.878,-11.105 1.402,-22.209 1.716,-33.302 -0.024,-0.525 -0.068,-1.036 -0.096,-1.559 -1.989,1.434 -4.006,2.946 -6.08,4.638 -13.261,8.118 -26.555,14.559 -39.705,19.392 -13.479,25.879 -27.474,51.793 -42.005,77.713 -14.985,-25.664 -29.429,-51.33 -43.362,-76.959 -13.238,-4.622 -26.632,-10.825 -40.03,-18.716 -4.946,-3.899 -9.657,-7.041 -14.147,-9.461 -0.268,3.791 -0.48,7.609 -0.578,11.496 0.51,11.082 1.228,22.176 2.299,33.267 2.211,11.33 4.723,22.65 7.472,33.974 3.803,14.949 9.044,30.725 15.606,47.128 0.282,0.582 0.53,1.135 0.755,1.681 l -1.868,-0.615 c -17.371,-31.16 -32.001,-61.608 -43.388,-90.686 -2.429,-5.77 -4.626,-11.429 -6.615,-16.957 -2.27,-7.191 -4.731,-14.583 -7.381,-22.188 -3.242,-10.511 -5.904,-20.707 -8.017,-30.58 -3.465,-3.338 -6.927,-6.781 -10.385,-10.383 -5.376,-6.005 -10.648,-11.745 -15.843,-17.217 -3.854,-4.42 -7.745,-9.084 -11.614,-14.005 -19.912,-24.059 -39.447,-51.624 -58.265,-81.93 l 0.365,-1.922 c 0.367,0.459 0.735,0.945 1.105,1.472 11.165,13.698 22.413,25.918 33.642,36.493 8.573,7.904 17.254,15.594 26.097,23.02 9.179,6.309 18.529,12.322 27.981,18.141 0.467,0.246 0.934,0.455 1.397,0.697 -0.241,-2.441 -0.543,-4.946 -0.975,-7.582 -0.393,-15.552 0.67,-30.286 3.054,-44.086 -15.664,-24.615 -31.111,-49.7 -46.29,-75.233 29.714,-0.152 59.169,0.179 88.334,0.925 10.613,-9.151 22.684,-17.661 36.213,-25.304 5.852,-2.343 10.934,-4.849 15.274,-7.529 -3.149,-2.129 -6.352,-4.223 -9.667,-6.245 -9.854,-5.103 -19.819,-10.02 -29.962,-14.64 -10.915,-3.757 -21.98,-7.233 -33.155,-10.522 -14.858,-4.175 -31.132,-7.524 -48.622,-10.046 -0.644,-0.043 -1.247,-0.11 -1.833,-0.183 l 1.468,-1.307 c 35.674,0.53 69.356,3.085 100.232,7.758 6.204,0.79 12.202,1.711 17.99,2.758 7.361,1.619 15.001,3.192 22.908,4.7 10.723,2.447 20.884,5.244 30.49,8.346 4.624,-1.332 9.336,-2.608 14.184,-3.805 7.888,-1.657 15.499,-3.343 22.827,-5.107 5.758,-1.139 11.748,-2.17 17.942,-3.058 30.793,-5.216 64.425,-8.35 100.078,-9.503 l 1.489,1.281 c -0.577,0.092 -1.189,0.161 -1.825,0.226 -17.45,2.813 -33.659,6.44 -48.429,10.879 -11.136,3.484 -22.134,7.154 -32.989,11.104 -10.053,4.787 -19.936,9.884 -29.7,15.159 -0.441,0.283 -0.854,0.578 -1.294,0.86 2.231,1.007 4.554,1.996 7.05,2.945 13.662,7.433 25.886,15.721 36.655,24.694 29.143,-1.263 58.595,-2.111 88.297,-2.481 -14.73,25.807 -29.746,51.158 -44.967,76.037 2.619,13.761 3.943,28.478 3.806,44.021 -0.893,6.234 -1.268,11.883 -1.117,16.983 3.418,-1.663 6.825,-3.39 10.241,-5.246 9.347,-5.986 18.589,-12.158 27.662,-18.624 8.71,-7.578 17.258,-15.425 25.688,-23.46 11.051,-10.777 22.083,-23.192 33.01,-37.078 0.358,-0.535 0.72,-1.035 1.079,-1.498 l 0.396,1.926 c -18.297,30.625 -37.347,58.518 -56.836,82.921"
                   style="fill:url(#linearGradient28436);stroke:none"
                   id="path28438"
                   inkscape:connector-curvature="0" /></g></g></g></g></g></g></g></svg>